<svg id="visual" viewBox="0 0 900 450" width="900" height="450" xmlns="http://www.w3.org/2000/svg" xmlns:xlink="http://www.w3.org/1999/xlink" version="1.1"><rect x="0" y="0" width="900" height="450" fill="#0e0c2d"></rect><path d="M0 211L21.5 228.8C43 246.7 86 282.3 128.8 288.3C171.7 294.3 214.3 270.7 257.2 257.8C300 245 343 243 385.8 252C428.7 261 471.3 281 514.2 274.2C557 267.3 600 233.7 642.8 229.5C685.7 225.3 728.3 250.7 771.2 249.3C814 248 857 220 878.5 206L900 192L900 451L878.5 451C857 451 814 451 771.2 451C728.3 451 685.7 451 642.8 451C600 451 557 451 514.2 451C471.3 451 428.7 451 385.8 451C343 451 300 451 257.2 451C214.3 451 171.7 451 128.8 451C86 451 43 451 21.5 451L0 451Z" fill="#00ffe8"></path><path d="M0 232L21.5 239.8C43 247.7 86 263.3 128.8 261.3C171.7 259.3 214.3 239.7 257.2 241.3C300 243 343 266 385.8 276.7C428.7 287.3 471.3 285.7 514.2 285.7C557 285.7 600 287.3 642.8 292.7C685.7 298 728.3 307 771.2 313.8C814 320.7 857 325.3 878.5 327.7L900 330L900 451L878.5 451C857 451 814 451 771.2 451C728.3 451 685.7 451 642.8 451C600 451 557 451 514.2 451C471.3 451 428.7 451 385.8 451C343 451 300 451 257.2 451C214.3 451 171.7 451 128.8 451C86 451 43 451 21.5 451L0 451Z" fill="#00eef8"></path><path d="M0 302L21.5 294.5C43 287 86 272 128.8 270.3C171.7 268.7 214.3 280.3 257.2 288.5C300 296.7 343 301.3 385.8 296.5C428.7 291.7 471.3 277.3 514.2 269.8C557 262.3 600 261.7 642.8 264.8C685.7 268 728.3 275 771.2 276.2C814 277.3 857 272.7 878.5 270.3L900 268L900 451L878.5 451C857 451 814 451 771.2 451C728.3 451 685.7 451 642.8 451C600 451 557 451 514.2 451C471.3 451 428.7 451 385.8 451C343 451 300 451 257.2 451C214.3 451 171.7 451 128.8 451C86 451 43 451 21.5 451L0 451Z" fill="#00dcff"></path><path d="M0 311L21.5 314.8C43 318.7 86 326.3 128.8 331.2C171.7 336 214.3 338 257.2 328.3C300 318.7 343 297.3 385.8 290.8C428.7 284.3 471.3 292.7 514.2 299.7C557 306.7 600 312.3 642.8 316.7C685.7 321 728.3 324 771.2 319.8C814 315.7 857 304.3 878.5 298.7L900 293L900 451L878.5 451C857 451 814 451 771.2 451C728.3 451 685.7 451 642.8 451C600 451 557 451 514.2 451C471.3 451 428.7 451 385.8 451C343 451 300 451 257.2 451C214.3 451 171.7 451 128.8 451C86 451 43 451 21.5 451L0 451Z" fill="#00c8ff"></path><path d="M0 343L21.5 338.2C43 333.3 86 323.7 128.8 323.3C171.7 323 214.3 332 257.2 333.7C300 335.3 343 329.7 385.8 327.5C428.7 325.3 471.3 326.7 514.2 322.2C557 317.7 600 307.3 642.8 312.8C685.7 318.3 728.3 339.7 771.2 346C814 352.3 857 343.7 878.5 339.3L900 335L900 451L878.5 451C857 451 814 451 771.2 451C728.3 451 685.7 451 642.8 451C600 451 557 451 514.2 451C471.3 451 428.7 451 385.8 451C343 451 300 451 257.2 451C214.3 451 171.7 451 128.8 451C86 451 43 451 21.5 451L0 451Z" fill="#00b2ff"></path><path d="M0 346L21.5 344.8C43 343.7 86 341.3 128.8 338.8C171.7 336.3 214.3 333.7 257.2 334.3C300 335 343 339 385.8 341.8C428.7 344.7 471.3 346.3 514.2 349.3C557 352.3 600 356.7 642.8 363C685.7 369.3 728.3 377.7 771.2 373.5C814 369.3 857 352.7 878.5 344.3L900 336L900 451L878.5 451C857 451 814 451 771.2 451C728.3 451 685.7 451 642.8 451C600 451 557 451 514.2 451C471.3 451 428.7 451 385.8 451C343 451 300 451 257.2 451C214.3 451 171.7 451 128.8 451C86 451 43 451 21.5 451L0 451Z" fill="#0099ff"></path><path d="M0 358L21.5 356.7C43 355.3 86 352.7 128.8 352.8C171.7 353 214.3 356 257.2 364.3C300 372.7 343 386.3 385.8 391.8C428.7 397.3 471.3 394.7 514.2 389.7C557 384.7 600 377.3 642.8 372.7C685.7 368 728.3 366 771.2 366C814 366 857 368 878.5 369L900 370L900 451L878.5 451C857 451 814 451 771.2 451C728.3 451 685.7 451 642.8 451C600 451 557 451 514.2 451C471.3 451 428.7 451 385.8 451C343 451 300 451 257.2 451C214.3 451 171.7 451 128.8 451C86 451 43 451 21.5 451L0 451Z" fill="#007eff"></path><path d="M0 383L21.5 383.8C43 384.7 86 386.3 128.8 385.2C171.7 384 214.3 380 257.2 379.8C300 379.7 343 383.3 385.8 385C428.7 386.7 471.3 386.3 514.2 388.2C557 390 600 394 642.8 392.3C685.7 390.7 728.3 383.3 771.2 381C814 378.7 857 381.3 878.5 382.7L900 384L900 451L878.5 451C857 451 814 451 771.2 451C728.3 451 685.7 451 642.8 451C600 451 557 451 514.2 451C471.3 451 428.7 451 385.8 451C343 451 300 451 257.2 451C214.3 451 171.7 451 128.8 451C86 451 43 451 21.5 451L0 451Z" fill="#005cff"></path><path d="M0 412L21.5 411.3C43 410.7 86 409.3 128.8 410.3C171.7 411.3 214.3 414.7 257.2 413.2C300 411.7 343 405.3 385.8 405.2C428.7 405 471.3 411 514.2 415.3C557 419.7 600 422.3 642.8 423C685.7 423.7 728.3 422.3 771.2 422.2C814 422 857 423 878.5 423.5L900 424L900 451L878.5 451C857 451 814 451 771.2 451C728.3 451 685.7 451 642.8 451C600 451 557 451 514.2 451C471.3 451 428.7 451 385.8 451C343 451 300 451 257.2 451C214.3 451 171.7 451 128.8 451C86 451 43 451 21.5 451L0 451Z" fill="#0027ff"></path></svg>